<mxfile host="app.diagrams.net" agent="Mozilla/5.0 (Windows NT 10.0; Win64; x64; rv:143.0) Gecko/20100101 Firefox/143.0" version="28.2.7">
  <diagram name="Page-1" id="6QX9WOd5E2EUKWoMhYYF">
    <mxGraphModel dx="1588" dy="649" grid="1" gridSize="10" guides="1" tooltips="1" connect="1" arrows="1" fold="1" page="0" pageScale="1" pageWidth="850" pageHeight="1100" math="0" shadow="0">
      <root>
        <mxCell id="0" />
        <mxCell id="1" parent="0" />
        <mxCell id="Gjob_63yT9RV-fcEFEcE-21" style="edgeStyle=orthogonalEdgeStyle;rounded=0;orthogonalLoop=1;jettySize=auto;html=1;entryX=0.5;entryY=1;entryDx=0;entryDy=0;" edge="1" parent="1" source="Gjob_63yT9RV-fcEFEcE-20" target="Gjob_63yT9RV-fcEFEcE-18">
          <mxGeometry relative="1" as="geometry" />
        </mxCell>
        <mxCell id="Gjob_63yT9RV-fcEFEcE-20" value="&lt;div&gt;&lt;br&gt;&lt;/div&gt;" style="ellipse;whiteSpace=wrap;html=1;aspect=fixed;labelBackgroundColor=default;" vertex="1" parent="1">
          <mxGeometry x="300" y="239.99999999999997" width="80" height="80" as="geometry" />
        </mxCell>
        <mxCell id="Gjob_63yT9RV-fcEFEcE-16" style="edgeStyle=orthogonalEdgeStyle;rounded=0;orthogonalLoop=1;jettySize=auto;html=1;entryX=0.5;entryY=0;entryDx=0;entryDy=0;" edge="1" parent="1" source="Gjob_63yT9RV-fcEFEcE-5" target="Gjob_63yT9RV-fcEFEcE-15">
          <mxGeometry relative="1" as="geometry" />
        </mxCell>
        <mxCell id="Gjob_63yT9RV-fcEFEcE-28" value="x(t)" style="edgeLabel;html=1;align=center;verticalAlign=middle;resizable=0;points=[];" vertex="1" connectable="0" parent="Gjob_63yT9RV-fcEFEcE-16">
          <mxGeometry x="-0.1556" y="7" relative="1" as="geometry">
            <mxPoint x="5" y="-5" as="offset" />
          </mxGeometry>
        </mxCell>
        <mxCell id="Gjob_63yT9RV-fcEFEcE-5" value="&lt;div&gt;Observation&lt;/div&gt;&lt;div&gt;Target&lt;/div&gt;" style="ellipse;shape=cloud;whiteSpace=wrap;html=1;" vertex="1" parent="1">
          <mxGeometry x="-40" y="111.56" width="120" height="80" as="geometry" />
        </mxCell>
        <mxCell id="Gjob_63yT9RV-fcEFEcE-17" style="edgeStyle=orthogonalEdgeStyle;rounded=0;orthogonalLoop=1;jettySize=auto;html=1;" edge="1" parent="1" source="Gjob_63yT9RV-fcEFEcE-15">
          <mxGeometry relative="1" as="geometry">
            <mxPoint x="300.00000680555604" y="151.58333333333337" as="targetPoint" />
          </mxGeometry>
        </mxCell>
        <mxCell id="Gjob_63yT9RV-fcEFEcE-29" value="x[n]" style="edgeLabel;html=1;align=center;verticalAlign=middle;resizable=0;points=[];" vertex="1" connectable="0" parent="Gjob_63yT9RV-fcEFEcE-17">
          <mxGeometry x="-0.2525" y="5" relative="1" as="geometry">
            <mxPoint x="4" y="-7" as="offset" />
          </mxGeometry>
        </mxCell>
        <mxCell id="Gjob_63yT9RV-fcEFEcE-15" value="&lt;div&gt;ADC&lt;/div&gt;&lt;div&gt;with Fs&lt;/div&gt;" style="shape=loopLimit;whiteSpace=wrap;html=1;fixedSize=1;rotation=0;horizontal=1;size=113;align=center;labelPosition=center;verticalLabelPosition=middle;verticalAlign=middle;spacingRight=16;direction=north;spacingTop=0;flipH=1;spacingLeft=0;" vertex="1" parent="1">
          <mxGeometry x="140.005" y="109.995" width="90" height="83.13" as="geometry" />
        </mxCell>
        <mxCell id="Gjob_63yT9RV-fcEFEcE-18" value="Mixer" style="shape=sumEllipse;perimeter=ellipsePerimeter;whiteSpace=wrap;html=1;backgroundOutline=1;labelPosition=center;verticalLabelPosition=top;align=center;verticalAlign=bottom;" vertex="1" parent="1">
          <mxGeometry x="300" y="112" width="80" height="80" as="geometry" />
        </mxCell>
        <mxCell id="Gjob_63yT9RV-fcEFEcE-19" value="LO" style="pointerEvents=1;verticalLabelPosition=bottom;shadow=0;dashed=0;align=center;html=1;verticalAlign=top;shape=mxgraph.electrical.waveforms.sine_wave;fillColor=default;" vertex="1" parent="1">
          <mxGeometry x="305" y="246.91" width="70" height="66.18" as="geometry" />
        </mxCell>
        <mxCell id="Gjob_63yT9RV-fcEFEcE-32" style="edgeStyle=orthogonalEdgeStyle;rounded=0;orthogonalLoop=1;jettySize=auto;html=1;" edge="1" parent="1" source="Gjob_63yT9RV-fcEFEcE-23" target="Gjob_63yT9RV-fcEFEcE-31">
          <mxGeometry relative="1" as="geometry" />
        </mxCell>
        <mxCell id="Gjob_63yT9RV-fcEFEcE-38" value="Baseband" style="edgeLabel;html=1;align=center;verticalAlign=middle;resizable=0;points=[];" vertex="1" connectable="0" parent="Gjob_63yT9RV-fcEFEcE-32">
          <mxGeometry x="-0.0533" y="1" relative="1" as="geometry">
            <mxPoint y="-11" as="offset" />
          </mxGeometry>
        </mxCell>
        <mxCell id="Gjob_63yT9RV-fcEFEcE-23" value="Low-pass filter" style="verticalLabelPosition=top;shadow=0;dashed=0;align=center;html=1;verticalAlign=bottom;shape=mxgraph.electrical.logic_gates.lowpass_filter;labelPosition=center;" vertex="1" parent="1">
          <mxGeometry x="487" y="114.06" width="100" height="75" as="geometry" />
        </mxCell>
        <mxCell id="Gjob_63yT9RV-fcEFEcE-40" style="edgeStyle=orthogonalEdgeStyle;rounded=0;orthogonalLoop=1;jettySize=auto;html=1;" edge="1" parent="1" source="Gjob_63yT9RV-fcEFEcE-31">
          <mxGeometry relative="1" as="geometry">
            <mxPoint x="712" y="450" as="targetPoint" />
          </mxGeometry>
        </mxCell>
        <mxCell id="Gjob_63yT9RV-fcEFEcE-41" value="&lt;div&gt;Output&lt;/div&gt;" style="edgeLabel;html=1;align=center;verticalAlign=middle;resizable=0;points=[];" vertex="1" connectable="0" parent="Gjob_63yT9RV-fcEFEcE-40">
          <mxGeometry x="-0.1486" y="4" relative="1" as="geometry">
            <mxPoint x="-4" as="offset" />
          </mxGeometry>
        </mxCell>
        <mxCell id="Gjob_63yT9RV-fcEFEcE-31" value="&lt;font style=&quot;font-size: 30px;&quot;&gt;&lt;span class=&quot;box&quot;&gt;â†“M&lt;/span&gt;&lt;/font&gt;" style="ellipse;whiteSpace=wrap;html=1;aspect=fixed;" vertex="1" parent="1">
          <mxGeometry x="672" y="112" width="80" height="80" as="geometry" />
        </mxCell>
        <mxCell id="Gjob_63yT9RV-fcEFEcE-33" value="Decimator" style="text;html=1;whiteSpace=wrap;strokeColor=none;fillColor=none;align=center;verticalAlign=middle;rounded=0;" vertex="1" parent="1">
          <mxGeometry x="682" y="88" width="60" height="30" as="geometry" />
        </mxCell>
        <mxCell id="Gjob_63yT9RV-fcEFEcE-34" style="edgeStyle=orthogonalEdgeStyle;rounded=0;orthogonalLoop=1;jettySize=auto;html=1;entryX=0;entryY=0.5;entryDx=0;entryDy=0;entryPerimeter=0;" edge="1" parent="1" source="Gjob_63yT9RV-fcEFEcE-18" target="Gjob_63yT9RV-fcEFEcE-23">
          <mxGeometry relative="1" as="geometry" />
        </mxCell>
        <mxCell id="Gjob_63yT9RV-fcEFEcE-37" value="&lt;div&gt;Intermediate&lt;/div&gt;&lt;div&gt;frequency&lt;/div&gt;" style="edgeLabel;html=1;align=center;verticalAlign=middle;resizable=0;points=[];" vertex="1" connectable="0" parent="Gjob_63yT9RV-fcEFEcE-34">
          <mxGeometry x="-0.2041" y="2" relative="1" as="geometry">
            <mxPoint x="8" y="-20" as="offset" />
          </mxGeometry>
        </mxCell>
        <mxCell id="Gjob_63yT9RV-fcEFEcE-39" value="DIGITAL DOWNCONVERTER" style="swimlane;startSize=20;" vertex="1" parent="1">
          <mxGeometry x="280" y="50" width="490" height="340" as="geometry" />
        </mxCell>
      </root>
    </mxGraphModel>
  </diagram>
</mxfile>
